<svg width="178" height="45" viewBox="0 0 178 45" fill="none" xmlns="http://www.w3.org/2000/svg">
<mask id="mask0_3571_6891" style="mask-type:luminance" maskUnits="userSpaceOnUse" x="0" y="0" width="37" height="45">
<path d="M36.4734 0.0140381H0V44.1795H36.4734V0.0140381Z" fill="white"/>
</mask>
<g mask="url(#mask0_3571_6891)">
<path d="M17.5508 30.5339C17.2233 35.7846 13.0244 39.9855 7.77441 40.3132V30.5339H17.5508Z" fill="#F94D00" stroke="#F94D00" stroke-width="1.3221"/>
<path d="M28.6777 17.1975C28.3366 22.6682 23.794 26.9993 18.2373 26.9993H7.77441V17.1975H28.6777Z" fill="#F94D00" stroke="#F94D00" stroke-width="1.3221"/>
<path d="M18.2373 3.85999H28.6777C28.3366 9.33062 23.794 13.6617 18.2373 13.6617H7.79688C8.13818 8.19137 12.681 3.86015 18.2373 3.85999Z" fill="#F94D00" stroke="#F94D00" stroke-width="1.3221"/>
</g>
<mask id="mask1_3571_6891" style="mask-type:luminance" maskUnits="userSpaceOnUse" x="36" y="0" width="143" height="45">
<path d="M178 0.0140381H36.4746V44.1795H178V0.0140381Z" fill="white"/>
</mask>
<g mask="url(#mask1_3571_6891)">
<mask id="mask2_3571_6891" style="mask-type:luminance" maskUnits="userSpaceOnUse" x="36" y="0" width="143" height="45">
<path d="M178 0.0140381H36.4746V44.1795H178V0.0140381Z" fill="white"/>
</mask>
<g mask="url(#mask2_3571_6891)">
<path d="M50.9761 14.6746C49.4657 14.6746 48.7105 15.4967 48.7105 17.1409V18.0586H52.9261V19.9306C52.9261 20.4806 52.4804 20.9263 51.9304 20.9263H48.8252V32.2621C48.8252 32.8121 48.3794 33.2578 47.8294 33.2578H45.2405V20.9263H42.7168V19.0543C42.7168 18.5044 43.1626 18.0586 43.7126 18.0586H45.2405V17.0835C45.2405 15.4393 45.7184 14.1488 46.6744 13.212C47.6303 12.256 48.9782 11.7781 50.718 11.7781C52.0946 11.7781 53.1747 12.0553 53.9586 12.6097L53.4003 14.1092C53.1741 14.7167 52.4298 14.9332 51.8012 14.7753C51.5337 14.7082 51.2587 14.6746 50.9761 14.6746Z" fill="#080808"/>
<path d="M60.6481 17.7711C62.9041 17.7711 64.6248 18.3159 65.8101 19.4057C67.0146 20.4763 67.6168 22.1015 67.6168 24.281V32.2614C67.6168 32.8114 67.171 33.2571 66.6211 33.2571H64.2329V31.3931C63.793 32.0623 63.1623 32.5784 62.3401 32.9418C61.5372 33.2858 60.5621 33.4578 59.415 33.4578C58.2679 33.4578 57.2642 33.2668 56.4037 32.8843C55.5435 32.4828 54.8743 31.938 54.3963 31.2497C53.9375 30.5424 53.708 29.7489 53.708 28.8694C53.708 27.4929 54.2147 26.3936 55.2279 25.5715C56.2604 24.7302 57.8759 24.3097 60.0746 24.3097H64.0321V24.0802C64.0321 23.0095 63.7071 22.1875 63.0571 21.6139C62.4261 21.0404 61.4798 20.7536 60.2179 20.7536C59.3576 20.7536 58.5069 20.8874 57.6657 21.1551C56.8435 21.4227 56.1456 21.7955 55.572 22.2735L54.6846 20.3396C54.4903 19.9161 54.6113 19.4076 55.0055 19.1592C55.6023 18.7834 56.2402 18.4958 57.0634 18.2586C58.1914 17.9336 59.3863 17.7711 60.6481 17.7711ZM60.1606 30.8482C61.0591 30.8482 61.8526 30.6474 62.5408 30.2459C63.2482 29.8254 63.7453 29.2327 64.0321 28.4679V26.6899H60.3327C58.2679 26.6899 57.2354 27.3687 57.2354 28.7261C57.2354 29.3761 57.4934 29.8924 58.0097 30.2747C58.5259 30.6571 59.2428 30.8482 60.1606 30.8482Z" fill="#080808"/>
<path d="M77.9218 33.4577C76.3349 33.4577 74.9105 33.1232 73.6487 32.4541C72.3868 31.785 71.4022 30.8577 70.6949 29.6723C69.9875 28.4678 69.6338 27.1104 69.6338 25.6C69.6338 24.0896 69.9875 22.7417 70.6949 21.5564C71.4022 20.371 72.3772 19.4438 73.62 18.7747C74.8818 18.1055 76.3158 17.771 77.9218 17.771C79.432 17.771 80.7513 18.0768 81.8792 18.6887C82.7429 19.1493 83.4442 19.7616 83.9827 20.5258C84.2852 20.955 84.1074 21.5329 83.6538 21.7974L81.7072 22.933C81.2675 22.2256 80.713 21.6998 80.0439 21.3557C79.3938 20.9924 78.6769 20.8108 77.8931 20.8108C76.5548 20.8108 75.4458 21.2505 74.5664 22.13C73.6869 22.9904 73.2472 24.147 73.2472 25.6C73.2472 27.053 73.6774 28.2193 74.5377 29.0988C75.4171 29.9591 76.5356 30.3892 77.8931 30.3892C78.6769 30.3892 79.3938 30.2172 80.0439 29.873C80.713 29.5098 81.2675 28.9745 81.7072 28.267L83.6431 29.3964C84.101 29.6634 84.2765 30.2488 83.9676 30.6798C83.4186 31.4457 82.713 32.0658 81.8505 32.5401C80.7226 33.1519 79.413 33.4577 77.9218 33.4577Z" fill="#080808"/>
<path d="M96.6347 31.7502C96.7923 32.1527 96.6772 32.6224 96.2958 32.8264C96.0114 32.9783 95.697 33.1028 95.351 33.2C94.7585 33.3721 94.128 33.4581 93.4585 33.4581C91.7763 33.4581 90.4763 33.0183 89.5583 32.139C88.6406 31.2595 88.1819 29.9785 88.1819 28.2961V20.9258H85.6582V19.0537C85.6582 18.5038 86.1039 18.058 86.6539 18.058H88.1819V15.5551C88.1819 15.0051 88.6276 14.5593 89.1776 14.5593H91.7663V18.058H95.8674V19.9301C95.8674 20.4801 95.4216 20.9258 94.8718 20.9258H91.7663V28.2101C91.7663 28.9557 91.9484 29.5293 92.3117 29.9308C92.6749 30.3131 93.2004 30.5043 93.8888 30.5043C94.6915 30.5043 95.3609 30.294 95.8963 29.8734L96.6347 31.7502Z" fill="#080808"/>
<path d="M105.37 33.4577C103.821 33.4577 102.425 33.1232 101.183 32.4541C99.9396 31.785 98.9649 30.8577 98.2573 29.6723C97.5689 28.4678 97.2246 27.1104 97.2246 25.6C97.2246 24.0896 97.5689 22.7417 98.2573 21.5564C98.9649 20.371 99.9396 19.4438 101.183 18.7747C102.425 18.1055 103.821 17.771 105.37 17.771C106.938 17.771 108.343 18.1055 109.585 18.7747C110.828 19.4438 111.793 20.371 112.482 21.5564C113.189 22.7417 113.543 24.0896 113.543 25.6C113.543 27.1104 113.189 28.4678 112.482 29.6723C111.793 30.8577 110.828 31.785 109.585 32.4541C108.343 33.1232 106.938 33.4577 105.37 33.4577ZM105.37 30.3892C106.689 30.3892 107.778 29.9495 108.639 29.07C109.5 28.1906 109.929 27.0339 109.929 25.6C109.929 24.1662 109.5 23.0094 108.639 22.13C107.778 21.2505 106.689 20.8108 105.37 20.8108C104.051 20.8108 102.961 21.2505 102.1 22.13C101.259 23.0094 100.838 24.1662 100.838 25.6C100.838 27.0339 101.259 28.1906 102.1 29.07C102.961 29.9495 104.051 30.3892 105.37 30.3892Z" fill="#080808"/>
<path d="M118.726 20.1799C119.759 18.574 121.575 17.771 124.175 17.771V20.3463C124.175 20.7814 123.778 21.0976 123.343 21.0976C121.947 21.0976 120.858 21.5087 120.074 22.3307C119.29 23.1337 118.898 24.2999 118.898 25.8294V32.2613C118.898 32.8113 118.452 33.257 117.903 33.257H115.313V18.9388C115.313 18.3888 115.759 17.943 116.309 17.943H118.726V20.1799Z" fill="#080808"/>
<path d="M131.134 33.4578C129.892 33.4578 128.678 33.2954 127.492 32.9704C126.308 32.6453 125.361 32.2343 124.653 31.7373L125.523 30.0154C125.793 29.4823 126.468 29.3073 127.008 29.5643C127.461 29.7806 127.957 29.9696 128.496 30.1314C129.471 30.399 130.428 30.5328 131.364 30.5328C133.505 30.5328 134.576 29.9687 134.576 28.8407C134.576 28.3054 134.299 27.9326 133.744 27.7224C133.209 27.512 132.339 27.3113 131.134 27.1201C129.873 26.929 128.84 26.709 128.038 26.4605C127.253 26.2119 126.565 25.7817 125.972 25.17C125.399 24.5391 125.113 23.6692 125.113 22.5603C125.113 21.1073 125.714 19.9506 126.919 19.0903C128.143 18.2108 129.787 17.7711 131.852 17.7711C132.903 17.7711 133.954 17.8953 135.006 18.1439C136.058 18.3734 136.918 18.6888 137.587 19.0903L136.689 20.8672C136.43 21.3804 135.792 21.5619 135.263 21.3372C134.212 20.8908 133.065 20.6676 131.823 20.6676C130.771 20.6676 129.968 20.8301 129.414 21.1551C128.878 21.461 128.611 21.872 128.611 22.3883C128.611 22.9618 128.898 23.3728 129.471 23.6213C130.064 23.8508 130.972 24.0707 132.196 24.281C133.419 24.4722 134.423 24.692 135.207 24.9406C135.991 25.1891 136.66 25.6097 137.215 26.2024C137.788 26.7951 138.075 27.6363 138.075 28.7261C138.075 30.1599 137.454 31.3071 136.211 32.1674C134.968 33.0278 133.276 33.4578 131.134 33.4578Z" fill="#080808"/>
<path d="M142.539 33.4911C141.89 33.4911 141.334 33.2712 140.876 32.8314C140.417 32.3726 140.188 31.799 140.188 31.1107C140.188 30.4034 140.407 29.8298 140.847 29.3901C141.306 28.9503 141.871 28.7305 142.539 28.7305C143.209 28.7305 143.762 28.9503 144.202 29.3901C144.661 29.8298 144.891 30.4034 144.891 31.1107C144.891 31.799 144.661 32.3726 144.202 32.8314C143.743 33.2712 143.19 33.4911 142.539 33.4911Z" fill="#080808"/>
<path d="M153.663 17.8075C155.919 17.8075 157.64 18.3523 158.825 19.4421C160.03 20.5127 160.632 22.1378 160.632 24.3174V32.2978C160.632 32.8478 160.186 33.2937 159.636 33.2937H157.248V31.4295C156.808 32.0987 156.177 32.6149 155.355 32.9781C154.552 33.3222 153.577 33.4943 152.43 33.4943C151.283 33.4943 150.279 33.3032 149.419 32.9207C148.559 32.5192 147.889 31.9744 147.411 31.2862C146.952 30.5787 146.723 29.7853 146.723 28.9058C146.723 27.5293 147.23 26.43 148.243 25.6078C149.276 24.7666 150.891 24.3461 153.089 24.3461H157.047V24.1166C157.047 23.0459 156.722 22.2239 156.072 21.6504C155.441 21.0767 154.494 20.7899 153.233 20.7899C152.372 20.7899 151.522 20.9237 150.681 21.1914C149.859 21.4591 149.16 21.8319 148.587 22.3099L147.585 20.4489C147.352 20.0176 147.466 19.4756 147.887 19.2248C148.532 18.8399 149.263 18.53 150.078 18.295C151.207 17.97 152.401 17.8075 153.663 17.8075ZM153.176 30.8847C154.074 30.8847 154.868 30.6839 155.556 30.2824C156.264 29.8618 156.76 29.2691 157.047 28.5043V26.7263H153.348C151.283 26.7263 150.25 27.4051 150.25 28.7625C150.25 29.4125 150.508 29.9287 151.025 30.311C151.541 30.6934 152.258 30.8847 153.176 30.8847Z" fill="#080808"/>
<path d="M164.37 18.9734C164.37 18.4235 164.817 17.9776 165.366 17.9776H167.956V32.2959C167.956 32.8459 167.51 33.2918 166.96 33.2918H164.37V18.9734ZM166.178 15.4539C165.528 15.4539 164.983 15.2532 164.543 14.8517C164.103 14.4312 163.884 13.9149 163.884 13.3031C163.884 12.6913 164.103 12.1847 164.543 11.7832C164.983 11.3626 165.528 11.1522 166.178 11.1522C166.827 11.1522 167.372 11.353 167.812 11.7545C168.252 12.1369 168.471 12.6244 168.471 13.2172C168.471 13.8479 168.252 14.3833 167.812 14.8231C167.391 15.2437 166.847 15.4539 166.178 15.4539Z" fill="#080808"/>
</g>
</g>
</svg>
